<svg width="245" height="245" viewBox="0 0 245 245" fill="none" xmlns="http://www.w3.org/2000/svg">
<g clip-path="url(#clip0_2_3)">
<path d="M10.4699 11.5802H234.208V66.3021C234.436 72.8869 234.436 79.9259 234.663 84.6942C234.891 89.4625 234.891 86.9648 234.891 86.5107C235.396 81.4558 235.624 76.3772 235.574 71.2975V61.7609C235.801 46.5477 235.574 31.1075 235.574 15.8943V9.76367H10.4699V1.8165H243.313V56.5385C243.54 63.1233 243.54 70.1622 243.768 74.9305C243.995 79.6988 243.995 77.2011 243.995 76.747C244.5 71.6921 244.728 66.6135 244.678 61.5338V51.9972C244.906 36.7841 244.678 21.3438 244.678 6.13068V0H9.1043V10.2178H0V117.164C0.227608 123.295 0.227608 130.334 0 136.918V245H99.0093L137.02 244.546H161.829C167.983 244.703 174.14 244.476 180.265 243.865H1.59325V83.3318C1.36565 71.5246 1.36565 59.7173 1.36565 47.683V11.5802H9.1043V107.173C8.8767 113.304 8.8767 120.343 8.8767 127.155V235.236H108.114L146.124 234.782H170.933C177.087 234.94 183.244 234.712 189.37 234.101H10.6976V37.9194C10.6976 25.8851 10.4699 20.4356 10.4699 11.5802ZM244.906 132.377V121.705L244.451 103.994C244.223 96.7285 243.995 95.3661 243.768 95.3661C243.768 99.6803 243.54 104.222 243.54 108.763V148.044C243.54 155.083 243.54 162.349 243.313 168.934V204.583C243.313 212.076 243.312 218.888 243.54 225.7V234.555L239.216 234.101H235.346C235.498 230.468 235.574 226.532 235.574 222.294V167.118C235.574 159.171 235.801 151.45 235.801 142.595V131.923L235.346 114.212C235.119 106.946 234.891 105.584 234.663 105.584C234.663 109.898 234.436 114.439 234.436 118.981V158.262C234.436 165.301 234.436 172.567 234.208 179.152V214.801C234.208 222.294 234.208 227.97 234.436 234.101H210.309C209.399 234.328 207.351 234.328 208.261 234.328L216.227 234.782H234.436V244.319L230.111 243.865H201.205C200.295 244.092 198.246 244.092 199.157 244.092L207.123 244.546H234.663C234.891 245.227 234.891 244.773 235.119 241.821C235.346 238.869 235.346 237.28 235.346 235.009H243.768C243.995 235.69 243.995 235.236 244.223 232.285C244.451 229.333 244.451 220.25 244.678 212.53V157.354C244.906 148.726 245.133 141.006 244.906 132.377Z" fill="#048C66"/>
<path d="M138.702 86.1298C137.893 78.2043 135.77 69.7048 131.973 68.9789C127.459 68.1162 126.243 73.1603 121.853 73.1603C117.464 73.1603 116.78 68.137 112.34 68.9069C107.37 69.7696 106.121 78.9766 105.816 86.145C94.1933 88.1045 86.24 92.0685 86.24 96.644C86.24 103.162 102.386 108.449 122.304 108.449C142.223 108.449 158.368 103.163 158.368 96.644C158.368 92.0573 150.374 88.0846 138.702 86.1298ZM134.45 97.1093C131.413 98.1479 127.147 98.7971 122.407 98.7971C113.194 98.7971 105.726 96.3514 105.726 93.3357C105.726 92.5818 105.717 91.5392 105.723 90.3168C105.751 90.3384 105.786 90.3463 105.804 90.3783C107.528 93.6547 117.806 100.009 134.45 97.1077L134.45 97.1093Z" fill="#038C4C"/>
<path d="M43.904 144.968V124.612H46.4546V144.968H43.904ZM49.5791 126.902V124.612H57.231V126.902H54.6804V144.968H52.1298V126.902H49.5791ZM60.3556 144.968V134.281C60.3556 127.182 60.3556 124.383 64.1815 124.383C68.0075 124.383 68.0075 127.182 68.0075 134.281V144.968H65.4568V139.115H62.9062V144.968H60.3556ZM62.9062 137.08H65.4568V134.281C65.4568 127.665 65.4568 126.418 64.1815 126.418C62.9062 126.418 62.9062 127.665 62.9062 134.281V137.08ZM72.1522 144.968V124.612H74.7029V142.423H78.0187V144.968H72.1522ZM81.1432 144.968V124.612H83.6938V144.968H81.1432ZM87.8386 144.968V134.281C87.8386 127.182 87.8386 124.383 91.6646 124.383C95.4905 124.383 95.4905 127.182 95.4905 134.281V144.968H92.9399V139.115H90.3892V144.968H87.8386ZM90.3892 137.08H92.9399V134.281C92.9399 127.665 92.9399 126.418 91.6646 126.418C90.3892 126.418 90.3892 127.665 90.3892 134.281V137.08ZM99.6353 144.968V124.612H101.931L105.272 137.08L105.247 136.825V124.612H107.797V144.968H105.502L102.16 133.772L102.186 134.026V144.968H99.6353ZM118.382 124.612H121.061L122.591 139.624H122.846L124.376 124.612H127.055L124.249 144.968H121.188L118.382 124.612ZM130.434 144.968V134.281C130.434 127.182 130.434 124.383 134.26 124.383C138.086 124.383 138.086 127.182 138.086 134.281V144.968H135.535V139.115H132.985V144.968H130.434ZM132.985 137.08H135.535V134.281C135.535 127.665 135.535 126.418 134.26 126.418C132.985 126.418 132.985 127.665 132.985 134.281V137.08ZM141.976 134.255C141.976 127.156 141.976 124.357 145.802 124.357C149.628 124.357 149.628 127.156 149.628 134.255V148.021H147.205L147.256 145.044C146.847 145.171 146.363 145.222 145.802 145.222C141.976 145.222 141.976 142.398 141.976 134.255ZM144.373 134.255C144.373 141.66 144.373 142.678 145.802 142.678C147.23 142.678 147.23 141.66 147.23 134.255C147.23 127.64 147.23 126.393 145.802 126.393C144.373 126.393 144.373 127.64 144.373 134.255ZM153.645 134.255V124.612H156.196V134.255C156.196 141.609 156.196 142.678 157.471 142.678C158.746 142.678 158.746 141.609 158.746 134.255V124.612H161.297V134.255C161.297 142.398 161.297 145.222 157.471 145.222C153.645 145.222 153.645 142.398 153.645 134.255ZM165.314 144.968V124.612H171.18V126.647H167.865V133.263H170.67V135.299H167.865V142.423H171.18V144.968H165.314ZM174.56 144.968V124.612H178.692C181.319 124.612 182.212 126.215 182.212 129.294C182.212 132.067 181.88 133.645 181.09 134.408V134.561C181.753 134.79 181.957 135.986 182.212 138.963L182.722 144.968H180.171L179.84 138.963C179.661 135.935 179.202 135.299 178.437 135.299H177.111V144.968H174.56ZM177.111 133.263H178.692C179.585 133.263 179.84 132.373 179.84 129.294C179.84 127.283 179.457 126.647 178.692 126.647H177.111V133.263ZM186.357 144.968V124.612H188.907V144.968H186.357ZM193.052 144.968V134.281C193.052 127.182 193.052 124.383 196.878 124.383C200.704 124.383 200.704 127.182 200.704 134.281V144.968H198.153V139.115H195.603V144.968H193.052ZM195.603 137.08H198.153V134.281C198.153 127.665 198.153 126.418 196.878 126.418C195.603 126.418 195.603 127.665 195.603 134.281V137.08Z" fill="#038C4C"/>
<path d="M60.415 164.697C61.3814 165.652 61.3734 167.035 61.3611 169.128C61.3602 169.283 61.3593 169.445 61.3587 169.612C61.354 170.854 61.3507 171.751 61.22 172.508C61.1087 173.153 60.8517 174.083 59.9105 174.709C58.7184 175.502 56.9377 175.52 53.0363 175.559C52.427 175.565 51.8652 175.57 51.3467 175.57C48.2557 175.57 46.7019 175.406 45.7092 174.422C44.6752 173.397 44.681 171.888 44.6895 169.603C44.699 167.054 44.7048 165.515 46.0001 164.56C47.1178 163.736 48.7409 163.714 52.2968 163.666L53.0065 163.657C57.4383 163.593 59.2726 163.567 60.4147 164.697L60.415 164.697ZM58.905 169.114C58.9119 167.911 58.9191 166.668 58.6853 166.437C58.3951 166.15 57.0928 166.083 55.3595 166.083C54.6462 166.083 53.8598 166.094 53.041 166.106L52.3291 166.116C49.7815 166.15 47.9409 166.175 47.459 166.53C47.1549 166.754 47.15 168.079 47.1442 169.613C47.1389 171.037 47.1338 172.382 47.4392 172.685C47.9188 173.16 50.5074 173.134 53.011 173.11C55.8859 173.081 57.963 173.06 58.5477 172.671C58.8918 172.443 58.8962 171.252 58.9024 169.603C58.903 169.434 58.904 169.271 58.9049 169.114L58.905 169.114ZM67.3563 173.069H81.6664V175.535H64.8839V163.552H67.356V173.069L67.3563 173.069ZM100.458 165.934C101.464 166.953 102.008 168.257 101.989 169.608C101.964 171.28 101.157 172.805 99.7141 173.903C98.2114 175.047 96.0967 175.652 93.5981 175.652C88.8293 175.652 86.4293 175.582 86.4058 175.581L85.2067 175.545V163.598H93.5981C97.3602 163.598 99.4052 164.869 100.458 165.934V165.934ZM93.5983 173.186C97.6509 173.186 99.4911 171.371 99.517 169.573C99.5269 168.878 99.2436 168.218 98.6978 167.666C97.6776 166.633 95.8665 166.065 93.5982 166.065H87.6789V173.142C88.8266 173.162 90.7989 173.186 93.5982 173.186L93.5983 173.186ZM137.236 163.745H140.296L130.801 176.375L127.093 171.443L123.386 176.375L113.89 163.745H116.95L123.386 172.305L125.563 169.409L121.305 163.745H124.365L127.093 167.374L129.821 163.745H132.881L128.623 169.409L130.801 172.305L137.236 163.745ZM159.63 166.064L145.32 166.065V168.361L154.864 168.397L154.855 170.863L145.32 170.827V173.116H159.63V175.582H142.847V163.599H159.63V166.065L159.63 166.064ZM166.086 166.121C165.856 166.247 165.621 166.46 165.621 167.076C165.621 167.556 165.777 167.819 166.177 168.012C166.581 168.208 167.032 168.222 167.054 168.222L176.04 168.257C177.601 168.257 179.931 169.219 179.931 171.87C179.931 174.52 177.766 175.482 176.31 175.482H163.149V173.016H176.299C176.407 173.012 176.729 172.972 176.994 172.825C177.224 172.698 177.459 172.486 177.459 171.87C177.459 171.389 177.303 171.127 176.903 170.934C176.5 170.739 176.05 170.724 176.025 170.723L167.045 170.684V170.688C165.479 170.688 163.149 169.726 163.149 167.076C163.149 164.426 165.314 163.464 166.77 163.464H179.931V165.93H166.781C166.674 165.934 166.351 165.974 166.086 166.121L166.086 166.121ZM183.451 163.463H200.234V165.93H193.078V175.482H190.606V165.93H183.451V163.463H183.451Z" fill="#025939"/>
</g>
<defs>
<clipPath id="clip0_2_3">
<rect width="245" height="245" fill="white"/>
</clipPath>
</defs>
</svg>
